<mxfile host="app.diagrams.net" modified="2024-02-24T19:50:12.104Z" agent="Mozilla/5.0 (X11; Linux x86_64) AppleWebKit/537.36 (KHTML, like Gecko) Chrome/121.0.0.0 Safari/537.36" etag="dacxiGImsE8YTPXyWU8F" version="23.1.6" type="device">
  <diagram name="Seite-1" id="5Hl3Uh1jGmSLO3zvfRbT">
    <mxGraphModel dx="2074" dy="1158" grid="1" gridSize="10" guides="1" tooltips="1" connect="1" arrows="1" fold="1" page="1" pageScale="1" pageWidth="827" pageHeight="1169" math="0" shadow="0">
      <root>
        <mxCell id="0" />
        <mxCell id="1" parent="0" />
        <mxCell id="zRbESsGUtah-ESHOn2YK-29" value="" style="endArrow=none;html=1;rounded=0;" parent="1" edge="1">
          <mxGeometry width="50" height="50" relative="1" as="geometry">
            <mxPoint x="200" y="345" as="sourcePoint" />
            <mxPoint x="200" y="250" as="targetPoint" />
          </mxGeometry>
        </mxCell>
        <mxCell id="zRbESsGUtah-ESHOn2YK-30" value="" style="endArrow=none;html=1;rounded=0;" parent="1" edge="1">
          <mxGeometry width="50" height="50" relative="1" as="geometry">
            <mxPoint x="260" y="345" as="sourcePoint" />
            <mxPoint x="260" y="250" as="targetPoint" />
          </mxGeometry>
        </mxCell>
        <mxCell id="zRbESsGUtah-ESHOn2YK-31" value="" style="endArrow=none;html=1;rounded=0;" parent="1" edge="1">
          <mxGeometry width="50" height="50" relative="1" as="geometry">
            <mxPoint x="320" y="345" as="sourcePoint" />
            <mxPoint x="320" y="250" as="targetPoint" />
          </mxGeometry>
        </mxCell>
        <mxCell id="zRbESsGUtah-ESHOn2YK-32" value="" style="endArrow=none;html=1;rounded=0;" parent="1" edge="1">
          <mxGeometry width="50" height="50" relative="1" as="geometry">
            <mxPoint x="380" y="345" as="sourcePoint" />
            <mxPoint x="380" y="250" as="targetPoint" />
          </mxGeometry>
        </mxCell>
        <mxCell id="zRbESsGUtah-ESHOn2YK-33" value="" style="endArrow=none;html=1;rounded=0;" parent="1" edge="1">
          <mxGeometry width="50" height="50" relative="1" as="geometry">
            <mxPoint x="440" y="345" as="sourcePoint" />
            <mxPoint x="440" y="250" as="targetPoint" />
          </mxGeometry>
        </mxCell>
        <mxCell id="zRbESsGUtah-ESHOn2YK-34" value="" style="endArrow=none;html=1;rounded=0;" parent="1" edge="1">
          <mxGeometry width="50" height="50" relative="1" as="geometry">
            <mxPoint x="500" y="345" as="sourcePoint" />
            <mxPoint x="500" y="250" as="targetPoint" />
          </mxGeometry>
        </mxCell>
        <mxCell id="zRbESsGUtah-ESHOn2YK-35" value="" style="endArrow=none;html=1;rounded=0;" parent="1" edge="1">
          <mxGeometry width="50" height="50" relative="1" as="geometry">
            <mxPoint x="560" y="345" as="sourcePoint" />
            <mxPoint x="560" y="250" as="targetPoint" />
          </mxGeometry>
        </mxCell>
        <mxCell id="zRbESsGUtah-ESHOn2YK-36" value="" style="endArrow=none;html=1;rounded=0;" parent="1" edge="1">
          <mxGeometry width="50" height="50" relative="1" as="geometry">
            <mxPoint x="620" y="345" as="sourcePoint" />
            <mxPoint x="620" y="250" as="targetPoint" />
          </mxGeometry>
        </mxCell>
        <mxCell id="zRbESsGUtah-ESHOn2YK-28" value="" style="endArrow=none;html=1;rounded=0;" parent="1" edge="1">
          <mxGeometry width="50" height="50" relative="1" as="geometry">
            <mxPoint x="140" y="345" as="sourcePoint" />
            <mxPoint x="140" y="250" as="targetPoint" />
          </mxGeometry>
        </mxCell>
        <mxCell id="zRbESsGUtah-ESHOn2YK-2" value="" style="endArrow=classic;html=1;rounded=0;" parent="1" edge="1">
          <mxGeometry width="50" height="50" relative="1" as="geometry">
            <mxPoint x="80" y="260" as="sourcePoint" />
            <mxPoint x="700" y="260" as="targetPoint" />
          </mxGeometry>
        </mxCell>
        <mxCell id="zRbESsGUtah-ESHOn2YK-3" value="Ordered Sequence of Documents" style="text;html=1;align=center;verticalAlign=middle;whiteSpace=wrap;rounded=0;" parent="1" vertex="1">
          <mxGeometry x="255" y="210" width="190" height="30" as="geometry" />
        </mxCell>
        <mxCell id="zRbESsGUtah-ESHOn2YK-4" value="" style="shape=curlyBracket;whiteSpace=wrap;html=1;rounded=1;labelPosition=left;verticalLabelPosition=middle;align=right;verticalAlign=middle;rotation=-90;" parent="1" vertex="1">
          <mxGeometry x="130" y="310" width="20" height="120" as="geometry" />
        </mxCell>
        <mxCell id="zRbESsGUtah-ESHOn2YK-5" value="Page" style="text;html=1;align=center;verticalAlign=middle;resizable=0;points=[];autosize=1;strokeColor=none;fillColor=none;" parent="1" vertex="1">
          <mxGeometry x="115" y="380" width="50" height="30" as="geometry" />
        </mxCell>
        <mxCell id="zRbESsGUtah-ESHOn2YK-6" value="Field &quot;a&quot;" style="text;html=1;align=center;verticalAlign=middle;whiteSpace=wrap;rounded=0;" parent="1" vertex="1">
          <mxGeometry x="20" y="290" width="60" height="30" as="geometry" />
        </mxCell>
        <mxCell id="zRbESsGUtah-ESHOn2YK-7" value="Field &quot;b&quot;" style="text;html=1;align=center;verticalAlign=middle;whiteSpace=wrap;rounded=0;" parent="1" vertex="1">
          <mxGeometry x="20" y="320" width="60" height="30" as="geometry" />
        </mxCell>
        <mxCell id="zRbESsGUtah-ESHOn2YK-8" value="Value 1" style="rounded=0;whiteSpace=wrap;html=1;" parent="1" vertex="1">
          <mxGeometry x="80" y="295" width="180" height="20" as="geometry" />
        </mxCell>
        <mxCell id="zRbESsGUtah-ESHOn2YK-9" value="Value 1.1" style="rounded=0;whiteSpace=wrap;html=1;" parent="1" vertex="1">
          <mxGeometry x="80" y="325" width="60" height="20" as="geometry" />
        </mxCell>
        <mxCell id="zRbESsGUtah-ESHOn2YK-10" value="Value 1.2" style="rounded=0;whiteSpace=wrap;html=1;" parent="1" vertex="1">
          <mxGeometry x="140" y="325" width="60" height="20" as="geometry" />
        </mxCell>
        <mxCell id="zRbESsGUtah-ESHOn2YK-11" value="Value 1.3" style="rounded=0;whiteSpace=wrap;html=1;" parent="1" vertex="1">
          <mxGeometry x="200" y="325" width="60" height="20" as="geometry" />
        </mxCell>
        <mxCell id="zRbESsGUtah-ESHOn2YK-13" value="Value 2" style="rounded=0;whiteSpace=wrap;html=1;" parent="1" vertex="1">
          <mxGeometry x="260" y="295" width="180" height="20" as="geometry" />
        </mxCell>
        <mxCell id="zRbESsGUtah-ESHOn2YK-14" value="Value 2.1" style="rounded=0;whiteSpace=wrap;html=1;" parent="1" vertex="1">
          <mxGeometry x="260" y="325" width="60" height="20" as="geometry" />
        </mxCell>
        <mxCell id="zRbESsGUtah-ESHOn2YK-15" value="Value 2.2" style="rounded=0;whiteSpace=wrap;html=1;" parent="1" vertex="1">
          <mxGeometry x="320" y="325" width="60" height="20" as="geometry" />
        </mxCell>
        <mxCell id="zRbESsGUtah-ESHOn2YK-16" value="Value 2.3" style="rounded=0;whiteSpace=wrap;html=1;" parent="1" vertex="1">
          <mxGeometry x="380" y="325" width="60" height="20" as="geometry" />
        </mxCell>
        <mxCell id="zRbESsGUtah-ESHOn2YK-17" value="" style="shape=curlyBracket;whiteSpace=wrap;html=1;rounded=1;labelPosition=left;verticalLabelPosition=middle;align=right;verticalAlign=middle;rotation=-90;" parent="1" vertex="1">
          <mxGeometry x="250" y="310" width="20" height="120" as="geometry" />
        </mxCell>
        <mxCell id="zRbESsGUtah-ESHOn2YK-18" value="Page" style="text;html=1;align=center;verticalAlign=middle;resizable=0;points=[];autosize=1;strokeColor=none;fillColor=none;" parent="1" vertex="1">
          <mxGeometry x="235" y="380" width="50" height="30" as="geometry" />
        </mxCell>
        <mxCell id="zRbESsGUtah-ESHOn2YK-19" value="" style="shape=curlyBracket;whiteSpace=wrap;html=1;rounded=1;labelPosition=left;verticalLabelPosition=middle;align=right;verticalAlign=middle;rotation=-90;" parent="1" vertex="1">
          <mxGeometry x="370" y="310" width="20" height="120" as="geometry" />
        </mxCell>
        <mxCell id="zRbESsGUtah-ESHOn2YK-20" value="Page" style="text;html=1;align=center;verticalAlign=middle;resizable=0;points=[];autosize=1;strokeColor=none;fillColor=none;" parent="1" vertex="1">
          <mxGeometry x="355" y="380" width="50" height="30" as="geometry" />
        </mxCell>
        <mxCell id="zRbESsGUtah-ESHOn2YK-22" value="Value 3" style="rounded=0;whiteSpace=wrap;html=1;" parent="1" vertex="1">
          <mxGeometry x="440" y="295" width="180" height="20" as="geometry" />
        </mxCell>
        <mxCell id="zRbESsGUtah-ESHOn2YK-23" value="Value 3.1" style="rounded=0;whiteSpace=wrap;html=1;" parent="1" vertex="1">
          <mxGeometry x="440" y="325" width="60" height="20" as="geometry" />
        </mxCell>
        <mxCell id="zRbESsGUtah-ESHOn2YK-24" value="Value 3.2" style="rounded=0;whiteSpace=wrap;html=1;" parent="1" vertex="1">
          <mxGeometry x="500" y="325" width="60" height="20" as="geometry" />
        </mxCell>
        <mxCell id="zRbESsGUtah-ESHOn2YK-25" value="Value 3.3" style="rounded=0;whiteSpace=wrap;html=1;" parent="1" vertex="1">
          <mxGeometry x="560" y="325" width="60" height="20" as="geometry" />
        </mxCell>
        <mxCell id="zRbESsGUtah-ESHOn2YK-26" value="" style="shape=curlyBracket;whiteSpace=wrap;html=1;rounded=1;labelPosition=left;verticalLabelPosition=middle;align=right;verticalAlign=middle;rotation=-90;" parent="1" vertex="1">
          <mxGeometry x="490" y="310" width="20" height="120" as="geometry" />
        </mxCell>
        <mxCell id="zRbESsGUtah-ESHOn2YK-27" value="Page" style="text;html=1;align=center;verticalAlign=middle;resizable=0;points=[];autosize=1;strokeColor=none;fillColor=none;" parent="1" vertex="1">
          <mxGeometry x="475" y="380" width="50" height="30" as="geometry" />
        </mxCell>
        <mxCell id="zRbESsGUtah-ESHOn2YK-37" value="" style="shape=curlyBracket;whiteSpace=wrap;html=1;rounded=1;labelPosition=left;verticalLabelPosition=middle;align=right;verticalAlign=middle;rotation=-90;" parent="1" vertex="1">
          <mxGeometry x="610" y="310" width="20" height="120" as="geometry" />
        </mxCell>
        <mxCell id="GA-4BKnZ4U5wlp6V9Ezh-1" value="" style="endArrow=classic;html=1;rounded=0;exitX=0.5;exitY=0;exitDx=0;exitDy=0;strokeColor=#666666;fontColor=#666666;" edge="1" parent="1" source="zRbESsGUtah-ESHOn2YK-17">
          <mxGeometry width="50" height="50" relative="1" as="geometry">
            <mxPoint x="390" y="620" as="sourcePoint" />
            <mxPoint x="200" y="450" as="targetPoint" />
          </mxGeometry>
        </mxCell>
        <mxCell id="GA-4BKnZ4U5wlp6V9Ezh-2" value="Cursor:&lt;br&gt;a:Value 1&lt;br&gt;b:Value 1.2" style="text;html=1;align=center;verticalAlign=middle;whiteSpace=wrap;rounded=0;strokeColor=none;fontColor=#666666;" vertex="1" parent="1">
          <mxGeometry x="150" y="460" width="100" height="30" as="geometry" />
        </mxCell>
        <mxCell id="GA-4BKnZ4U5wlp6V9Ezh-3" value="" style="endArrow=classic;html=1;rounded=0;exitX=0.5;exitY=0;exitDx=0;exitDy=0;strokeColor=#666666;fontColor=#666666;" edge="1" parent="1">
          <mxGeometry width="50" height="50" relative="1" as="geometry">
            <mxPoint x="320" y="370" as="sourcePoint" />
            <mxPoint x="320" y="450" as="targetPoint" />
          </mxGeometry>
        </mxCell>
        <mxCell id="GA-4BKnZ4U5wlp6V9Ezh-4" value="Cursor:&lt;br&gt;a:Value 2&lt;br&gt;b:Value 2.1" style="text;html=1;align=center;verticalAlign=middle;whiteSpace=wrap;rounded=0;strokeColor=none;fontColor=#666666;" vertex="1" parent="1">
          <mxGeometry x="270" y="460" width="100" height="30" as="geometry" />
        </mxCell>
        <mxCell id="GA-4BKnZ4U5wlp6V9Ezh-5" value="" style="endArrow=classic;html=1;rounded=0;exitX=0.5;exitY=0;exitDx=0;exitDy=0;strokeColor=#666666;fontColor=#666666;" edge="1" parent="1">
          <mxGeometry width="50" height="50" relative="1" as="geometry">
            <mxPoint x="440" y="370" as="sourcePoint" />
            <mxPoint x="440" y="450" as="targetPoint" />
          </mxGeometry>
        </mxCell>
        <mxCell id="GA-4BKnZ4U5wlp6V9Ezh-6" value="Cursor:&lt;br&gt;a:Value 2&lt;br&gt;b:Value 2.3" style="text;html=1;align=center;verticalAlign=middle;whiteSpace=wrap;rounded=0;strokeColor=none;fontColor=#666666;" vertex="1" parent="1">
          <mxGeometry x="390" y="460" width="100" height="30" as="geometry" />
        </mxCell>
        <mxCell id="GA-4BKnZ4U5wlp6V9Ezh-7" value="" style="endArrow=classic;html=1;rounded=0;exitX=0.5;exitY=0;exitDx=0;exitDy=0;strokeColor=#666666;fontColor=#666666;" edge="1" parent="1">
          <mxGeometry width="50" height="50" relative="1" as="geometry">
            <mxPoint x="560" y="370" as="sourcePoint" />
            <mxPoint x="560" y="450" as="targetPoint" />
          </mxGeometry>
        </mxCell>
        <mxCell id="GA-4BKnZ4U5wlp6V9Ezh-8" value="Cursor:&lt;br&gt;a:Value 3&lt;br&gt;b:Value 3.2" style="text;html=1;align=center;verticalAlign=middle;whiteSpace=wrap;rounded=0;fontColor=#666666;strokeColor=none;" vertex="1" parent="1">
          <mxGeometry x="510" y="460" width="100" height="30" as="geometry" />
        </mxCell>
        <mxCell id="GA-4BKnZ4U5wlp6V9Ezh-9" value="" style="endArrow=classic;html=1;rounded=0;exitX=0.5;exitY=0;exitDx=0;exitDy=0;strokeColor=#666666;fontColor=#666666;" edge="1" parent="1">
          <mxGeometry width="50" height="50" relative="1" as="geometry">
            <mxPoint x="80" y="370" as="sourcePoint" />
            <mxPoint x="80" y="450" as="targetPoint" />
          </mxGeometry>
        </mxCell>
        <mxCell id="GA-4BKnZ4U5wlp6V9Ezh-10" value="Cursor:&lt;br&gt;a: &quot;&quot;&lt;br&gt;b: &quot;&quot;" style="text;html=1;align=center;verticalAlign=middle;whiteSpace=wrap;rounded=0;strokeColor=none;fontColor=#666666;" vertex="1" parent="1">
          <mxGeometry x="30" y="460" width="100" height="30" as="geometry" />
        </mxCell>
      </root>
    </mxGraphModel>
  </diagram>
</mxfile>
